<svg width="240" height="280" viewBox="0 0 240 280" fill="none" xmlns="http://www.w3.org/2000/svg">
<path id="fleuron-glyph" fill-rule="evenodd" d="M119.382 173.22C119.726 173.995 122.841 186.344 123.005 187.287C128.126 216.661 125.067 241.232 111.176 266.788C108.648 271.439 103.771 278.851 98.9995 279.846C95.8496 280.501 93.582 278.968 91.0972 276.999C90.0829 276.141 89.2202 275.184 88.3276 274.175C81.1267 266.015 88.7397 262.07 92.1577 256.397C93.508 254.156 94.703 253.428 96.2417 251.401C111.132 231.787 114.674 210.783 118.051 186.731C118.516 183.425 118.733 176.483 119.382 173.22ZM165.661 0.0475006C167.303 -0.0813904 169.099 0.0707088 170.728 0.279922C182.719 1.82023 191.751 8.99075 196.542 18.7155C199.129 23.9647 200.582 29.3883 205.708 33.2799C208.57 35.4514 211.941 36.6664 215.396 37.8659C222.533 40.3427 228.881 43.2798 233.583 48.901C238.719 55.0449 240.706 63.0191 239.446 70.568C238.256 77.7067 234.197 83.9924 228.232 88.8024C215.469 99.0926 196.76 101.54 180.247 102.224C174.018 102.483 157.837 101.821 153.15 105.052C152.222 105.693 151.428 106.654 151.344 107.734C151.276 108.639 151.67 109.337 152.359 109.971C153.323 110.859 154.906 111.142 156.243 111.251C159.999 111.558 164.52 110.881 168.342 110.698C174.452 110.428 180.57 110.393 186.682 110.591C202.912 111.144 219.716 113.158 231.46 124.453C237.679 130.433 240.321 138.335 239.969 146.387C239.465 157.901 231.983 167.94 220.317 172.81C214.314 175.35 208.689 176.237 204.366 181.188C201.766 184.161 200.398 187.217 198.986 190.732C196.64 196.57 193.442 201.937 188.201 206.148C181.883 211.218 173.575 213.849 165.093 213.46C157.059 213.049 149.541 209.784 144.217 204.392C140.314 200.481 137.219 195.38 135.108 190.504C132.029 183.389 129.802 175.408 128.034 167.956C124.957 154.99 121.7 142.326 122.544 129.038C123.667 111.35 131.552 99.3291 148.26 89.9342C153.598 86.9327 159.686 83.862 164.489 80.1188C170.321 75.5265 174.722 68.9035 175.523 61.9264C175.736 60.0693 174.92 57.4011 172.329 57.4196C169.159 57.4421 167.999 61.5067 167.19 63.7291C165.643 67.9851 163.297 70.8298 159.753 73.9664C160.747 68.0734 158.341 64.5099 155.386 59.4098C145.939 65.1616 144.997 71.9187 150.831 80.2955C149.915 80.8821 148.742 81.5567 147.783 82.0582C133.232 89.6559 121.287 99.4334 116.756 114.472C114.74 121.163 114.396 126.75 114.368 133.752C112.346 130.966 109.928 128.669 106.731 126.955C97.9841 122.266 87.0041 123.069 81.3833 131.178C80.4649 132.798 79.9056 134.36 79.8384 136.185C79.7013 139.338 80.9737 142.408 83.3745 144.72C87.0452 148.215 94.1681 149.962 98.564 146.349C99.4781 145.498 99.9634 144.531 99.8921 143.355C99.8095 140.814 98.1253 139.337 95.2876 140.311C93.1248 141.055 91.6213 142.005 89.5747 140.255C88.6368 139.452 88.1005 138.344 88.0864 137.183C88.0164 133.227 92.2947 131.281 96.188 131.246C100.06 131.212 103.701 132.891 106.409 135.278C111.041 139.364 112.763 145.118 112.708 150.794C112.665 155.175 112.259 159.949 111.576 164.352C109.425 178.203 106.009 194.989 94.6987 205.399C88.8848 210.748 81.0461 213.661 72.8257 213.556C58.8976 213.377 48.2323 206.107 42.8901 194.844C40.2359 189.248 38.8694 183.577 33.7397 179.35C29.7503 176.061 25.6447 175.195 20.897 173.309C16.6763 171.676 12.8399 169.344 9.59131 166.433C3.17755 160.614 -0.079436 152.49 0.00146484 144.381C-0.00763481 136.446 3.54261 128.836 9.85791 123.256C25.1453 109.875 49.2468 110.405 69.189 110.53C73.8408 110.655 78.2938 111.107 82.9526 111.272C85.5648 111.365 89.1365 110.553 88.8862 107.56C88.6412 104.626 83.1909 103.419 80.5142 103.09C74.6288 102.369 68.5024 102.639 62.5708 102.392C45.3095 101.769 25.0243 99.5214 11.5806 88.8034C4.77966 83.4531 0.690374 75.8732 0.243652 67.7877C-0.462998 55.7628 7.39276 44.9778 19.4634 40.0514C25.8301 37.4528 31.9224 36.4588 36.729 31.6256C40.6377 27.6947 41.9247 23.0562 44.313 18.3444C45.8962 15.1737 48.0324 12.2481 50.6431 9.67641C56.4514 3.91119 64.6078 0.469634 73.2817 0.124649C92.2314 -0.631622 103.267 12.9456 108.821 27.3893C114.749 42.8047 114.803 58.8224 115.037 74.9245C115.077 77.7811 115.654 84.4238 120.352 84.0914C120.636 84.0702 120.917 84.0147 121.184 83.9284C123.749 83.1065 124.569 79.5372 124.751 77.3737C125.094 73.2829 125.182 69.1354 125.259 65.0309C125.627 46.0776 127.787 25.5039 142.165 10.4791C148.506 3.85267 156.04 0.635934 165.661 0.0475006Z" fill="#22432E"/>
</svg>
